<svg width="48" height="48" viewBox="0 0 48 48" fill="none" xmlns="http://www.w3.org/2000/svg">
<g filter="url(#filter0_d_321_2)">
<rect x="4" y="4" width="40" height="40" rx="8" fill="white"/>
</g>
<path d="M27.2857 18.3665C27.6368 18.5113 28.0471 18.4255 28.2941 18.1521C28.3938 18.0408 28.4978 17.9309 28.6061 17.825C29.0901 17.3544 29.6001 17.337 30.123 17.9751C30.3195 18.2151 30.5579 18.4229 30.8121 18.6079C31.4276 19.057 31.4984 19.494 31.0101 19.9592C30.7283 20.2286 30.2343 20.5155 30.2386 20.789C30.2458 21.2408 30.5362 21.7113 30.7962 22.1255C30.8887 22.2744 31.2354 22.3441 31.4695 22.3508C32.7899 22.3896 32.9979 22.576 32.9994 23.816C32.9994 23.9729 33.0008 24.1284 32.9994 24.2852C32.9864 25.1754 32.7133 25.4153 31.7396 25.4328C31.416 25.4381 30.9234 25.3872 30.802 25.5494C30.4986 25.9583 30.2791 26.4623 30.1967 26.953C30.162 27.1581 30.5362 27.4463 30.763 27.6622C31.546 28.4035 31.5518 28.626 30.7543 29.3647C30.5839 29.5229 30.4149 29.6811 30.2444 29.8379C29.5683 30.4573 29.1638 30.4506 28.4819 29.8352C28.2493 29.6248 27.9286 29.2534 27.7336 29.2963C27.2929 29.3915 26.8552 29.5685 26.4651 29.7964C26.2672 29.9117 26.1473 30.1114 26.1314 30.3272C26.1199 30.4827 26.117 30.657 26.1155 30.7938C26.1054 31.7791 25.8728 31.9976 24.8038 31.9989C24.7792 31.9989 24.7561 31.9989 24.7315 31.9989C23.3187 31.9949 22.6873 32.1223 22.774 30.5404C22.7957 30.1329 22.4764 30.0176 22.3103 29.8795C22.1933 29.783 22.0604 29.7186 21.9289 29.6315C21.3091 29.2172 20.8526 29.3459 20.3643 29.8688C19.9772 30.283 19.2996 30.2937 18.8792 29.909C18.5946 29.6489 18.3086 29.3875 18.0312 29.1207C17.5342 28.6448 17.5429 28.2239 18.05 27.7453C18.1005 27.697 18.1569 27.6555 18.2046 27.6045C18.4213 27.3713 18.8373 27.1098 18.807 26.9074C18.7362 26.4422 18.492 25.9811 18.2219 25.5735C18.1323 25.4395 17.748 25.4381 17.4981 25.4354C16.13 25.4194 16.0014 25.3094 16 24.0734C16 23.9394 16 23.8053 16 23.6712C16 22.5237 16.1791 22.2998 17.3984 22.3749C18.2335 22.4258 18.4025 21.7837 18.6871 21.2113C18.95 20.7528 18.5845 20.5249 18.3476 20.2997C17.4447 19.4444 17.4447 19.1991 18.3765 18.329C18.5802 18.1386 18.7839 17.9496 18.989 17.7606C19.4036 17.3812 19.8269 17.3919 20.2545 17.7445C20.308 17.7888 20.36 17.8357 20.4106 17.8826C21.1965 18.6105 21.679 18.6628 22.5617 18.0234C22.7365 17.896 22.7957 17.5609 22.8029 17.3182C22.8434 16.0889 22.9373 15.9924 24.2649 16.0004C24.4094 16.0004 24.5539 16.0018 24.6983 16.0018C26.0043 16.0044 26.1343 16.0996 26.1025 17.2766C26.0895 17.77 26.2369 18.0153 26.7714 18.1936C26.939 18.2499 27.1051 18.2928 27.2828 18.3665H27.2857ZM21.3453 23.9769C21.3539 25.6473 22.7596 26.9101 24.5741 26.8739C26.2817 26.8404 27.6989 25.4931 27.7061 23.8951C27.7133 22.2918 26.2513 20.8962 24.59 20.9204C22.7162 20.9472 21.338 22.2462 21.3467 23.9769H21.3453Z" fill="#A9C8FF"/>
<defs>
<filter id="filter0_d_321_2" x="0" y="0" width="48" height="48" filterUnits="userSpaceOnUse" color-interpolation-filters="sRGB">
<feFlood flood-opacity="0" result="BackgroundImageFix"/>
<feColorMatrix in="SourceAlpha" type="matrix" values="0 0 0 0 0 0 0 0 0 0 0 0 0 0 0 0 0 0 127 0" result="hardAlpha"/>
<feOffset/>
<feGaussianBlur stdDeviation="2"/>
<feComposite in2="hardAlpha" operator="out"/>
<feColorMatrix type="matrix" values="0 0 0 0 0 0 0 0 0 0 0 0 0 0 0 0 0 0 0.05 0"/>
<feBlend mode="normal" in2="BackgroundImageFix" result="effect1_dropShadow_321_2"/>
<feBlend mode="normal" in="SourceGraphic" in2="effect1_dropShadow_321_2" result="shape"/>
</filter>
</defs>
</svg>
